<svg width="36" height="35" fill="none" xmlns="http://www.w3.org/2000/svg"><path d="M33.616 1.482H1.484V32.82h32.132V1.482z" fill="#001D26"/><path fill-rule="evenodd" clip-rule="evenodd" d="M.023.018v34.266h35.053V.018H.023zm1.46 1.464h32.133V32.82H1.484V1.482z" fill="#00C8FF"/><path fill-rule="evenodd" clip-rule="evenodd" d="M8.494 8.073c0-.074.22-.147.293-.147.949-.073 2.336-.073 3.797-.073 4.016 0 5.623 2.197 5.623 5.052 0 3.734-2.702 5.345-5.988 5.345H11.05v5.638c0 .146-.073.146-.146.146H8.64c-.146 0-.146-.073-.146-.146V8.073zm2.556 7.76h1.169c1.68 0 3.286-.585 3.286-2.928 0-1.83-1.168-2.782-3.067-2.782-.584 0-1.169 0-1.388.073v5.638zm12.634-1.757c-1.168 0-1.534.586-1.534 1.099 0 .512.293.878 1.826 1.684 2.264 1.098 2.994 2.196 2.994 3.734 0 2.343-1.752 3.587-4.162 3.587-1.242 0-2.337-.292-2.994-.658-.073-.074-.146-.147-.146-.22v-2.123c0-.147.073-.22.146-.147.949.586 1.971.879 2.92.879 1.17 0 1.607-.513 1.607-1.172 0-.512-.365-1.025-1.825-1.757-2.045-1.025-2.921-1.977-2.921-3.66 0-1.904 1.46-3.442 4.016-3.442 1.241 0 2.118.22 2.629.44.146.072.146.219.146.292v1.977c0 .146-.073.22-.219.146-.584-.439-1.534-.659-2.483-.659z" fill="#00C8FF"/></svg>