<svg width="36" height="35" fill="none" xmlns="http://www.w3.org/2000/svg"><path d="M33.904 1.482H1.772V32.82h32.132V1.482z" fill="#2A0034"/><path fill-rule="evenodd" clip-rule="evenodd" d="M.311.018v34.266h35.054V.018H.31zm1.461 1.464h32.132V32.82H1.772V1.482z" fill="#EA77FF"/><path fill-rule="evenodd" clip-rule="evenodd" d="M9.513 8.043c0-.103.029-.176.146-.176a86.285 86.285 0 013.753-.073c4.046 0 5.813 2.226 5.813 5.067 0 3.72-2.687 5.315-5.988 5.315-.555 0-.745-.03-1.14-.03v5.624c0 .117-.043.176-.174.176h-2.25c-.116 0-.175-.044-.175-.176V8.043h.015zm2.585 7.776c.336.029.599.029 1.183.029 1.709 0 3.315-.6 3.315-2.929 0-1.86-1.139-2.797-3.096-2.797-.584 0-1.14.03-1.402.044v5.653zm9.347-1.333c0-.176 0-.6-.073-1.42 0-.118.015-.147.117-.19.891-.367 2.98-1.011 5.346-1.011.117 0 .175.03.175.146v2.123c0 .118-.044.147-.16.147-.92-.044-2.25.073-2.76.293v9.225c0 .117-.045.176-.176.176H21.62c-.117 0-.175-.044-.175-.176v-9.313z" fill="#EA77FF"/></svg>