<svg width="37" height="33" fill="none" xmlns="http://www.w3.org/2000/svg"><path d="M22.838.373H11.255c-.806 0-1.54.666-1.54 1.556V8.3h13.123V.373z" fill="#169154"/><path d="M9.716 24.233v6.372c0 .816.66 1.556 1.54 1.556h11.582v-7.928H9.716z" fill="#18482A"/><path d="M22.838 8.302H9.716v7.928h13.122V8.302z" fill="#0C8045"/><path d="M22.838 16.23H9.716v8.003h13.122V16.23z" fill="#17472A"/><path d="M34.347.373h-11.51V8.3H35.96V1.93c-.073-.89-.733-1.556-1.612-1.556z" fill="#29C27F"/><path d="M22.838 24.232v7.855H34.42c.806 0 1.54-.667 1.54-1.556v-6.373l-13.122.074z" fill="#27663F"/><path d="M35.96 8.302H22.837v7.928h13.121V8.302z" fill="#19AC65"/><path d="M35.96 16.23H22.837v8.003h13.121V16.23z" fill="#129652"/><path d="M16.973 25.048H2.46a1.478 1.478 0 01-1.467-1.482V8.894c0-.815.66-1.482 1.467-1.482h14.514c.807 0 1.466.667 1.466 1.482v14.672c0 .815-.66 1.482-1.466 1.482z" fill="#0C7238"/><path d="M6.05 11.784h2.126l1.686 3.334 1.76-3.334H13.6l-2.712 4.446 2.712 4.445h-2.053l-1.832-3.482-1.833 3.482H5.831l2.785-4.445-2.566-4.446z" fill="#fff"/></svg>