<svg width="22" height="41" fill="none" xmlns="http://www.w3.org/2000/svg"><path d="M21.058 30.067l-8.402-9.19 8.402-9.19a1.43 1.43 0 00-.148-2.07l-10.215-8.39a1.431 1.431 0 00-2.342 1.105v13.84L2.49 9.758a1.433 1.433 0 00-2.023-.092 1.429 1.429 0 00-.091 2.02l7.978 8.727v.927L.375 30.067a1.432 1.432 0 002.115 1.928l5.863-6.413v13.84a1.431 1.431 0 002.342 1.105l10.215-8.39a1.43 1.43 0 00.148-2.07zM11.218 5.36l6.708 5.51-6.709 7.338V5.36zm0 31.033V23.546l6.708 7.337-6.709 5.51z" fill="#C4C4C4"/></svg>