<svg width="40" height="35" fill="none" xmlns="http://www.w3.org/2000/svg"><path d="M4.888 17.17c0 9.343 7.656 16.88 17.147 16.88 9.49 0 17.067-7.537 17.067-16.88H4.888z" fill="#DC4C2C"/><path d="M21.955.37v16.8h17.148c0-9.263-7.657-16.8-17.148-16.8z" fill="#F7A278"/><path d="M21.955.37c-9.41 0-17.067 7.537-17.067 16.801h17.147V.371h-.08z" fill="#C06346"/><path d="M18.446 26.592H2.655c-.878 0-1.595-.706-1.595-1.57V9.399c0-.864.717-1.57 1.595-1.57h15.791c.877 0 1.595.706 1.595 1.57v15.623c0 .864-.718 1.57-1.595 1.57z" fill="#9B341F"/><path d="M11.188 12.54H6.722v9.341h1.914v-3.297h2.154c1.754 0 3.27-1.413 3.27-3.219v-.078c0-1.492-1.277-2.748-2.872-2.748zm.878 3.14c0 .784-.638 1.491-1.516 1.491H8.716v-3.14h1.914c.798 0 1.515.628 1.515 1.491v.157h-.08z" fill="#fff"/></svg>