<svg width="39" height="35" fill="none" xmlns="http://www.w3.org/2000/svg"><path d="M36.527.37H11.914c-.929 0-1.625.704-1.625 1.642V8.81h27.864V2.012c0-.938-.697-1.641-1.626-1.641z" fill="#2D92D4"/><path d="M10.366 25.69v6.72c0 .938.697 1.64 1.626 1.64h24.613c.929 0 1.625-.702 1.625-1.64v-6.72H10.366z" fill="#2150A9"/><path d="M38.153 8.81H10.366v8.44h27.787V8.81z" fill="#2D83D4"/><path d="M38.153 17.25H10.366v8.44h27.787v-8.44z" fill="#2E70C9"/><path d="M18.029 26.549H2.626a1.56 1.56 0 01-1.548-1.563V9.436c0-.86.697-1.563 1.548-1.563H18.03a1.56 1.56 0 011.548 1.562v15.551a1.56 1.56 0 01-1.548 1.563z" fill="#00488D"/><path d="M14.391 12.561l-1.393 6.799-1.626-6.799H9.36l-1.625 6.955-1.47-6.955h-1.86l2.168 9.377h2.244l1.548-7.267 1.626 7.267h2.09l2.167-9.377H14.39z" fill="#fff"/></svg>